<?xml version="1.0" encoding="UTF-8"?>
<!-- Created with sK1/UniConvertor (http://sk1project.org/) -->
<svg width="266.53pt" height="330.09pt" fill-rule="evenodd" version="1.1" viewBox="0 0 266.53 330.09" xmlns="http://www.w3.org/2000/svg">
 <g transform="translate(-308.78 -359.89)" fill="none">
  <g stroke="#E8DFCA" stroke-linecap="round" stroke-linejoin="round" stroke-width="1.5">
   <path d="m470.44 465.34c0.70933-1.063 1.4187-2.126 2.128-3.189"/>
   <path d="m446.17 409.71c-0.70967 1.063-1.4193 2.126-2.129 3.189"/>
   <path d="m460.42 401.73c-0.603 0.90367-1.206 1.8073-1.809 2.711"/>
   <path d="m474.33 412.99c0.32667-0.49 0.65333-0.98 0.98-1.47"/>
   <path d="m464.58 404.46c-0.15704 0.23524-0.63904 0.95724-0.723 1.083"/>
   <path d="m498.63 482.59c0.70933-1.063 1.4187-2.126 2.128-3.189"/>
   <path d="m490.76 472.73c-0.70933 1.0633-1.4187 2.1267-2.128 3.19"/>
   <path d="m483.89 433.35c-0.70933 1.0633-1.4187 2.1267-2.128 3.19"/>
   <path d="m493.64 440.41 0.253-0.379"/>
   <path d="m494.02 426.94c-0.70933 1.063-1.4187 2.126-2.128 3.189"/>
   <path d="m544.72 453.11c0.70967-1.063 1.4193-2.126 2.129-3.189"/>
   <path d="m519 423.21c-0.1571 0.2352-0.7511 1.1245-0.891 1.334"/>
   <path d="m499.22 444.13c0.887-1.329 1.774-2.658 2.661-3.987"/>
   <path d="m412.1 369.03-8.103 5.13"/>
   <path d="m475.5 411.39c-0.37167 0.55667-0.74333 1.1133-1.115 1.67"/>
   <path d="m484.02 421.77c0.70933-1.0633 1.4187-2.1267 2.128-3.19"/>
   <path d="m473.42 392.46c-0.53733 0.80533-1.0747 1.6107-1.612 2.416"/>
   <path d="m471.4 408.58c-0.15696 0.2353-0.54162 0.81196-0.577 0.865"/>
   <path d="m533.89 425.28c0.70933-1.063 1.4187-2.126 2.128-3.189"/>
   <path d="m459.18 457.83c-1.5077 2.2593-3.0153 4.5187-4.523 6.778"/>
   <path d="m452.93 642.63v-62.6"/>
   <path d="m332.68 580.03v62.6"/>
   <path d="m435.33 551.81c-0.70867-0.40933-1.4173-0.81867-2.126-1.228"/>
   <path d="m352.41 550.58c-0.70867 0.40933-1.4173 0.81867-2.126 1.228"/>
   <path d="m452.93 580.03v-3.682"/>
   <path d="m332.68 576.35v3.682"/>
   <path d="m342.52 396.46-4.221 1.593"/>
   <path d="m338.3 398.05c-4.8677-5.5273-9.7353-11.055-14.603-16.582"/>
   <path d="m325.67 377.32c-0.65833 1.381-1.3167 2.762-1.975 4.143"/>
   <path d="m325.67 377.32c5.6163 6.3773 11.233 12.755 16.849 19.132"/>
   <path d="m337.83 369.63c5.6163 6.3773 11.233 12.755 16.849 19.132"/>
   <path d="m354.68 388.76c-4.0513 2.565-8.1027 5.13-12.154 7.695"/>
   <path d="m337.83 369.63c-4.0513 2.565-8.1027 5.13-12.154 7.695"/>
   <path d="m338.63 416.64c-0.11-6.1983-0.22-12.397-0.33-18.595"/>
   <path d="m342.52 396.46 0.381 21.456"/>
   <path d="m342.9 417.91c-1.424-0.42267-2.848-0.84533-4.272-1.268"/>
   <path d="m354.68 388.76c0.0633 3.576 0.12667 7.152 0.19 10.728"/>
   <path d="m354.87 399.49c-1.0127 0.64133-2.0253 1.2827-3.038 1.924"/>
   <path d="m349.89 407.65c0.646-2.0793 1.292-4.1587 1.938-6.238"/>
   <path d="m349.99 413.42c-0.0343-1.9243-0.0687-3.8487-0.103-5.773"/>
   <path d="m342.9 417.91c2.3633-1.496 4.7267-2.992 7.09-4.488"/>
   <path d="m338.63 416.64c-0.0737-1.2777-0.14733-2.5553-0.221-3.833"/>
   <path d="m338.41 412.81c-0.0883-4.9797-0.17667-9.9593-0.265-14.939"/>
   <path d="m323.7 381.47c-4.7573 0.67133-9.5147 1.3427-14.272 2.014"/>
   <path d="m309.43 383.48c-0.0737-1.2777-0.14733-2.5553-0.221-3.833"/>
   <path d="m309.2 379.65c5.4893-0.77467 10.979-1.5493 16.468-2.324"/>
   <path d="m321.36 371.95c5.4893-0.77467 10.979-1.5493 16.468-2.324"/>
   <path d="m321.36 371.95c-4.0513 2.565-8.1027 5.13-12.154 7.695"/>
   <path d="m325.16 383.13c-3.822 0.53933-7.644 1.0787-11.466 1.618"/>
   <path d="m313.7 384.75c-1.424-0.423-2.848-0.846-4.272-1.269"/>
   <path d="m338.23 402.91c-0.26883-0.27421-1.5562-1.0615-1.931-1.181"/>
   <path d="m338.28 405.71c-1.757 0.60238-4.0212-3.127-1.981-3.982"/>
   <path d="m337.29 396.9c-2.2548 7.7435-12.242-4.7928-6.689-7.595"/>
   <path d="m333.42 410.02c1.6417-0.23167 3.2833-0.46333 4.925-0.695"/>
   <path d="m321.07 396c4.1187 4.6767 8.2373 9.3533 12.356 14.03"/>
   <path d="m320.85 383.74c0.0723 4.085 0.14467 8.17 0.217 12.255"/>
   <path d="m343.87 421.52c-2.1163-0.949-4.2327-1.898-6.349-2.847"/>
   <path d="m343.87 421.52c-1.9017 0.26833-3.8033 0.53667-5.705 0.805"/>
   <path d="m338.16 422.32-6.348-2.847"/>
   <path d="m331.82 419.48c-1.794 0.253-3.588 0.506-5.382 0.759"/>
   <path d="m324.36 418.66c0.69233 0.526 1.3847 1.052 2.077 1.578"/>
   <path d="m324.36 418.66c4.7577-0.67133 9.5153-1.3427 14.273-2.014"/>
   <path d="m342.9 417.91c-1.794 0.25333-3.588 0.50667-5.382 0.76"/>
   <path d="m326.33 414.51c4.0257-0.568 8.0513-1.136 12.077-1.704"/>
   <path d="m326.33 414.51c-0.65833 1.381-1.3167 2.762-1.975 4.143"/>
   <path d="m351.83 401.41c16.273 38.334 32.545 76.667 48.818 115"/>
   <path d="m400.65 516.41c-1.9723-1.0453-3.9447-2.0907-5.917-3.136"/>
  </g>
  <path d="m394.73 513.28c-14.946-35.209-29.893-70.418-44.839-105.63"/>
  <g stroke="#E8DFCA" stroke-linecap="round" stroke-linejoin="round" stroke-width="1.5">
   <path d="m403.68 514.49c-1.0127 0.64133-2.0253 1.2827-3.038 1.924"/>
   <path d="m354.87 399.49c16.273 38.334 32.545 76.667 48.818 115"/>
   <path d="m326.33 414.51c2.3633-1.4963 4.7267-2.9927 7.09-4.489"/>
   <path d="m394.73 513.28-4.533-5.148"/>
   <path d="m390.2 508.13c-1.16 0.164-2.32 0.328-3.48 0.492"/>
   <path d="m347.09 415.26c13.21 31.119 26.42 62.239 39.63 93.358"/>
   <path d="m377.72 513.38c0.58467-2.659 1.1693-5.318 1.754-7.977"/>
   <path d="m379.48 505.4c-11.869-27.961-23.739-55.922-35.608-83.883"/>
  </g>
  <path d="m382.79 510.17c-13.106-30.873-26.211-61.746-39.317-92.619"/>
  <g stroke="#E8DFCA" stroke-linecap="round" stroke-linejoin="round" stroke-width="1.5">
   <path d="m382.79 510.17-5.064 3.207"/>
   <path d="m313.7 384.75c0.093 5.2447 0.186 10.489 0.279 15.734"/>
   <path d="m313.98 400.48-4.221 1.593"/>
   <path d="m309.43 383.48c0.11 6.1987 0.22 12.397 0.33 18.596"/>
   <path d="m309.76 402.08c-0.0487-0.27862-0.16201-0.92729-0.17-0.973"/>
   <path d="m309.59 401.1-0.381-21.456"/>
   <path d="m386.72 508.62c-1.3093 0.51667-2.6187 1.0333-3.928 1.55"/>
   <path d="m313.98 400.48c2.3633-1.496 4.7267-2.992 7.09-4.488"/>
   <path d="m399.96 531.75-4.221 1.593"/>
   <path d="m395.73 533.34c-4.8677-5.5273-9.7353-11.055-14.603-16.582"/>
   <path d="m383.11 512.62c-0.65833 1.381-1.3167 2.762-1.975 4.143"/>
   <path d="m383.11 512.62c5.6163 6.3773 11.233 12.755 16.849 19.132"/>
   <path d="m313.98 400.48c4.1187 4.677 8.2373 9.354 12.356 14.031"/>
   <path d="m309.76 402.08c4.8673 5.527 9.7347 11.054 14.602 16.581"/>
   <path d="m379.48 505.4c-1.9013 0.26833-3.8027 0.53667-5.704 0.805"/>
   <path d="m373.77 506.21c-11.87-27.961-23.739-55.922-35.609-83.883"/>
   <path d="m412.11 524.06c-4.0513 2.5647-8.1027 5.1293-12.154 7.694"/>
   <path d="m383.11 512.62c2.3633-1.4963 4.7267-2.9927 7.09-4.489"/>
   <path d="m412.11 524.06c-2.8083-3.189-5.6167-6.378-8.425-9.567"/>
   <path d="m396.06 551.94c-0.11-6.1983-0.22-12.397-0.33-18.595"/>
   <path d="m399.96 531.75c0.127 7.1523 0.254 14.305 0.381 21.457"/>
   <path d="m400.34 553.21c-1.424-0.423-2.848-0.846-4.272-1.269"/>
   <path d="m412.49 545.51c-4.0513 2.565-8.1027 5.13-12.154 7.695"/>
   <path d="m412.49 545.51-0.381-21.456"/>
   <path d="m396.06 551.94c-0.0737-1.2777-0.14733-2.5553-0.221-3.833"/>
   <path d="m395.84 548.1c-0.0883-4.9797-0.17667-9.9593-0.265-14.939"/>
   <path d="m381.13 516.76c-4.7573 0.67167-9.5147 1.3433-14.272 2.015"/>
   <path d="m366.86 518.78c-0.0737-1.278-0.14733-2.556-0.221-3.834"/>
   <path d="m366.64 514.94c1.794-0.253 3.588-0.506 5.382-0.759"/>
   <path d="m377.72 513.38c1.794-0.25333 3.588-0.50667 5.382-0.76"/>
   <path d="m372.02 514.18c0.58467-2.659 1.1693-5.318 1.754-7.977"/>
   <path d="m332.98 420c12.965 30.542 25.931 61.085 38.896 91.627"/>
   <path d="m382.6 518.43c-3.822 0.53933-7.644 1.0787-11.466 1.618"/>
   <path d="m371.13 520.04c-1.424-0.42267-2.848-0.84533-4.272-1.268"/>
   <path d="m392.73 534.66c-4.1488 0.16499-8.8277-7.3191-4.695-10.058"/>
   <path d="m392.73 534.66c1.1676-0.15321 2.028-1.3381 1.993-2.463"/>
   <path d="m395.72 541.01c-3.335 0.73009-3.8546-6.9056-0.05-2.801"/>
   <path d="m390.86 545.32c1.6417-0.23167 3.2833-0.46333 4.925-0.695"/>
   <path d="m378.5 531.29c4.1187 4.6767 8.2373 9.3533 12.356 14.03"/>
   <path d="m378.28 519.04c0.0723 4.085 0.14467 8.17 0.217 12.255"/>
   <path d="m381.79 553.95c0.69233 0.52633 1.3847 1.0527 2.077 1.579"/>
   <path d="m381.79 553.95c4.7577-0.67133 9.5153-1.3427 14.273-2.014"/>
   <path d="m400.34 553.21c-5.4893 0.77467-10.979 1.5493-16.468 2.324"/>
   <path d="m383.77 549.81c4.0257-0.568 8.0513-1.136 12.077-1.704"/>
   <path d="m383.77 549.81c-0.65833 1.381-1.3167 2.762-1.975 4.143"/>
   <path d="m383.77 549.81c2.3633-1.4963 4.7267-2.9927 7.09-4.489"/>
   <path d="m366.64 514.94c2.0193-1.2783 4.0387-2.5567 6.058-3.835"/>
   <path d="m371.13 520.04 0.279 15.735"/>
   <path d="m371.41 535.78c-1.407 0.53067-2.814 1.0613-4.221 1.592"/>
   <path d="m366.86 518.78c0.11 6.1983 0.22 12.397 0.33 18.595"/>
   <path d="m367.19 537.37c-0.0487-0.27862-0.16201-0.92729-0.17-0.973"/>
   <path d="m367.02 536.4-0.381-21.456"/>
   <path d="m371.41 535.78c2.3633-1.4963 4.7267-2.9927 7.09-4.489"/>
   <path d="m371.41 535.78c4.1187 4.6767 8.2373 9.3533 12.356 14.03"/>
   <path d="m367.19 537.37c4.8673 5.527 9.7347 11.054 14.602 16.581"/>
   <path d="m460.55 401.54c-0.63284 0.85564-0.96832 1.93-0.968 2.991"/>
   <path d="m461.43 401.72-0.877-0.176"/>
   <path d="m462.43 404.4-1.001-2.683"/>
   <path d="m462.5 405.12-0.073-0.721"/>
   <path d="m464.02 405.6-1.517-0.482"/>
   <path d="m465.9 403.14c-0.37821 0.35863-1.6295 2.0026-1.877 2.466"/>
   <path d="m466.75 403.5-0.851-0.373"/>
   <path d="m466.96 404.42-0.211-0.913"/>
   <path d="m466.85 406.84c0.0623-0.48533 0.133-2.0987 0.106-2.42"/>
   <path d="m468.27 407.64-1.417-0.802"/>
   <path d="m470.92 405.87c-0.49033 0.22987-2.2597 1.4139-2.654 1.776"/>
   <path d="m471.69 406.41-0.765-0.542"/>
   <path d="m470.82 409.44c0.60574-0.8827 0.90063-1.9693 0.871-3.034"/>
   <path d="m472.04 410.51-1.224-1.066"/>
   <path d="m475.3 409.55c-0.57321 0.0887-2.7425 0.72933-3.254 0.961"/>
   <path d="m475.92 410.22-0.63-0.674"/>
   <path d="m474.14 412.75c0.36517-0.37058 1.5578-2.0559 1.789-2.528"/>
   <path d="m475.08 414.01-0.948-1.257"/>
   <path d="m478.72 413.92c-0.54867-0.0587-2.9693-5e-3 -3.631 0.081"/>
   <path d="m479.17 414.68-0.45-0.759"/>
   <path d="m476.58 416.54c0.48021-0.24396 2.2015-1.4793 2.582-1.853"/>
   <path d="m477.19 417.9-0.606-1.363"/>
   <path d="m480.95 418.7c-1.1746-0.53358-2.4712-0.80263-3.76-0.802"/>
   <path d="m481.19 419.5-0.239-0.796"/>
   <path d="m477.99 420.54c0.566-0.10346 2.7-0.80279 3.201-1.049"/>
   <path d="m478.12 421.23-0.127-0.689"/>
   <path d="m478.21 421.92-0.093-0.687"/>
   <path d="m481.84 423.56c-0.57371-0.33037-2.995-1.4204-3.632-1.635"/>
   <path d="m481.85 424.33c0-0.04-9e-3 -0.55667-0.013-0.775"/>
   <path d="m478.25 424.5c0.48233 0.046 2.8843-0.0693 3.603-0.173"/>
   <path d="m478.08 425.8 0.176-1.297"/>
   <path d="m481.33 428.15c-0.50304-0.44354-2.6737-2.0122-3.256-2.353"/>
   <path d="m481.12 428.86 0.214-0.703"/>
   <path d="m477.36 428.14c1.1809 0.50466 2.4768 0.74506 3.759 0.712"/>
   <path d="m476.8 429.27 0.564-1.128"/>
   <path d="m479.46 432.18c-0.39571-0.52971-2.171-2.469-2.663-2.909"/>
   <path d="m479.03 432.76 0.428-0.582"/>
   <path d="m475.37 431.21c0.57837 0.31763 3.0164 1.3536 3.657 1.554"/>
   <path d="m474.46 432.09 0.911-0.883"/>
   <path d="m476.35 435.36c-0.25625-0.58242-1.5142-2.7611-1.887-3.268"/>
   <path d="m475.73 435.78 0.611-0.424"/>
   <path d="m472.43 433.5c0.51225 0.43317 2.7162 1.9578 3.306 2.287"/>
   <path d="m471.23 434.08 1.196-0.578"/>
   <path d="m472.13 436.58-0.899-2.506"/>
   <path d="m472.21 437.48-0.079-0.901"/>
   <path d="m471.46 437.72 0.753-0.235"/>
   <path d="m469.34 435.74 2.112 1.983"/>
   <path d="m473.13 459.29c-1.2623-7.8503-2.5247-15.701-3.787-23.551"/>
   <path d="m462 458.34c0.60658 5.5851 11.406 8.554 11.128 0.952"/>
   <path d="m458.06 433.8c1.315 8.1783 2.63 16.357 3.945 24.535"/>
   <path d="m459.58 404.53c-8.7023-1.9602-17.905 6.3867-14.743 15.275 1.6816 6.4951 7.1319 11.525 13.216 13.991"/>
   <path d="m458.86 419.59c0.24019 2.4289 5.0031 3.7587 4.868 0.417"/>
   <path d="m463.73 420c-0.24055-2.4283-5.0027-3.7601-4.868-0.417"/>
   <path d="m465.13 458.6c0.24198 2.4284 5.0026 3.7584 4.869 0.416"/>
   <path d="m470 459.02c-0.24139-2.4294-5.0026-3.7579-4.869-0.416"/>
   <path d="m455.93 436.99c0.70933-1.063 1.4187-2.126 2.128-3.189"/>
   <path d="m462 458.34c-0.70967 1.0633-1.4193 2.1267-2.129 3.19"/>
   <path d="m455.93 436.99c1.3147 8.1787 2.6293 16.357 3.944 24.536"/>
   <path d="m459.87 461.52c0.77514 4.4057 7.3137 7.732 10.566 3.813"/>
   <path d="m467.21 460.88-1.417-0.947"/>
   <path d="m444.04 412.9c-5.7292 9.5059 2.8746 20.758 11.885 24.094"/>
   <path d="m472.21 437.48c-0.69433 1.0403-1.3887 2.0807-2.083 3.121"/>
   <path d="m472.43 433.5c-0.15706 0.23523-0.7224 1.0819-0.848 1.27"/>
   <path d="m475.73 435.78c-0.70933 1.063-1.4187 2.126-2.128 3.189"/>
   <path d="m471.86 438 1.745 0.972"/>
   <path d="m476.35 435.36c-0.70967 1.0633-1.4193 2.1267-2.129 3.19"/>
   <path d="m473.61 438.97 0.611-0.424"/>
   <path d="m475.37 431.21c-0.15704 0.23524-0.64304 0.96324-0.729 1.092"/>
   <path d="m479.03 432.76c-0.70933 1.0633-1.4187 2.1267-2.128 3.19"/>
   <path d="m476.09 435.75c0.11333 0.031 0.65667 0.16567 0.815 0.202"/>
   <path d="m460.94 421.86-1.416-0.946"/>
   <path d="m479.46 432.18c-0.70967 1.063-1.4193 2.126-2.129 3.189"/>
   <path d="m476.9 435.95 0.428-0.583"/>
   <path d="m481.12 428.85c-0.64367 0.96433-1.2873 1.9287-1.931 2.893"/>
   <path d="m481.85 424.33c-0.595 0.89167-1.19 1.7833-1.785 2.675"/>
   <path d="m479.17 414.68c-0.68033 1.0193-1.3607 2.0387-2.041 3.058"/>
   <path d="m483.34 436.28c-0.40885-7.6165 10.432-4.7556 11.107 0.825"/>
   <path d="m493.81 440.16c0.24033-0.758 0.66967-2.7947 0.644-3.055"/>
   <path d="m493.81 440.16c-0.18033 0.56867-0.50233 2.096-0.483 2.291"/>
   <path d="m498.27 470.82c-1.648-9.4583-3.296-18.917-4.944-28.375"/>
   <path d="m498.27 470.82 1.304 2.423"/>
   <path d="m501.31 476.48c-0.21196-0.58671-1.3713-2.74-1.739-3.23"/>
   <path d="m501.31 476.48c0.40881 7.6171-10.43 4.7556-11.107-0.824"/>
   <path d="m490.85 472.6c-0.24 0.758-0.66867 2.7947-0.643 3.055"/>
   <path d="m490.85 472.6c0.18-0.56867 0.50133-2.096 0.482-2.291"/>
   <path d="m491.33 470.31c-1.6483-9.4583-3.2967-18.917-4.945-28.375"/>
   <path d="m486.38 441.93-1.305-2.423"/>
   <path d="m483.34 436.28c0.212 0.58671 1.372 2.74 1.74 3.23"/>
   <path d="m493.33 475.89c-0.18727-3.3786 4.5996-2.0512 4.859 0.36"/>
   <path d="m498.19 476.25c0.18984 3.3792-4.5997 2.0497-4.859-0.36"/>
   <path d="m486.47 436.51c-0.1876-3.3784 4.601-2.0501 4.859 0.361"/>
   <path d="m491.32 436.87c0.18744 3.378-4.6001 2.0492-4.859-0.361"/>
   <path d="m488.08 478.84c0.70933-1.063 1.4187-2.126 2.128-3.189"/>
   <path d="m498.63 482.59c-3.1982 3.915-9.7628 0.59896-10.555-3.75"/>
   <path d="m486.38 441.93c-0.70933 1.0633-1.4187 2.1267-2.128 3.19"/>
   <path d="m489.2 473.5c-1.648-9.4583-3.296-18.917-4.944-28.375"/>
   <path d="m488.63 475.92c-0.21 0.715-0.57867 2.665-0.553 2.925"/>
   <path d="m495.4 478.13-1.417-0.947"/>
   <path d="m488.88 475.54c0.12467-0.48767 0.338-1.8477 0.32-2.04"/>
   <path d="m482.95 442.7c0.70967-1.063 1.4193-2.126 2.129-3.189"/>
   <path d="m484.26 445.12-1.304-2.423"/>
   <path d="m481.21 439.47c0.70933-1.063 1.4187-2.126 2.128-3.189"/>
   <path d="m481.77 436.54c-0.21167 0.70967-0.58033 2.6597-0.553 2.925"/>
   <path d="m481.21 439.47c0.21171 0.587 1.371 2.741 1.739 3.231"/>
   <path d="m488.54 438.76-1.416-0.947"/>
   <path d="m536.52 441.41c0.57967 0.11233 2.401 0.26633 2.732 0.231"/>
   <path d="m542.89 441.94c-0.77267-0.14933-3.2007-0.35333-3.642-0.306"/>
   <path d="m540.81 451.23c7.9356 2.6286 8.6295-7.0154 2.085-9.286"/>
   <path d="m537.62 448.93c0.48046 0.45037 2.6098 1.9824 3.194 2.298"/>
   <path d="m537.61 448.93-2.395-1.724"/>
   <path d="m535.22 447.21c-10.288-3.917-20.575-7.834-30.863-11.751"/>
   <path d="m504.36 435.46c-0.57967-0.112-2.401-0.26533-2.732-0.23"/>
   <path d="m497.98 434.92c0.773 0.14933 3.2017 0.35333 3.643 0.306"/>
   <path d="m500.07 425.64c-7.9354-2.629-8.6289 7.0172-2.084 9.286"/>
   <path d="m503.26 427.93c-0.48029-0.45038-2.609-1.9824-3.193-2.298"/>
   <path d="m503.26 427.93 2.395 1.724"/>
   <path d="m536.52 441.41c-10.288-3.917-20.576-7.834-30.864-11.751"/>
   <path d="m542.31 444.55c-3.2874-1.316-3.7982 3.2671-0.912 4.062"/>
   <path d="m541.4 448.62c3.2891 1.3158 3.7982-3.2656 0.912-4.062"/>
   <path d="m499.48 428.25c-3.2883-1.3156-3.7978 3.266-0.912 4.062"/>
   <path d="m498.57 432.31c3.2878 1.3157 3.7985-3.2666 0.912-4.062"/>
   <path d="m533.09 450.4c0.70967-1.0633 1.4193-2.1267 2.129-3.19"/>
   <path d="m504.36 435.46c-0.70967 1.0633-1.4193 2.1267-2.129 3.19"/>
   <path d="m533.09 450.4c-10.288-3.917-20.575-7.834-30.863-11.751"/>
   <path d="m497.98 434.92c-0.70967 1.063-1.4193 2.126-2.129 3.189"/>
   <path d="m491.89 430.13c-0.48868 0.81221-0.61992 1.6675-0.598 2.598"/>
   <path d="m494.5 437.43c0.25291 0.12664 1.1582 0.57997 1.358 0.68"/>
   <path d="m499.5 438.42c0.70933-1.0633 1.4187-2.1267 2.128-3.19"/>
   <path d="m495.85 438.11c0.77267 0.14967 3.2007 0.35433 3.642 0.307"/>
   <path d="m502.23 438.65c-0.57967-0.11233-2.401-0.26567-2.732-0.23"/>
   <path d="m497.35 431.44-0.1-0.036"/>
   <path d="m498.67 432.35c-0.33173-0.44802-0.85627-0.63537-1.317-0.909"/>
   <path d="m540.81 451.23c-0.70933 1.063-1.4187 2.126-2.128 3.189"/>
   <path d="m538.68 454.42c1.9878 1.1005 4.6904 0.50902 6.043-1.306"/>
   <path d="m537.61 448.93c-0.70933 1.063-1.4187 2.126-2.128 3.189"/>
   <path d="m535.49 452.12c0.48029 0.45067 2.609 1.9833 3.193 2.299"/>
   <path d="m535.48 452.12-2.395-1.723"/>
   <path d="m540.18 447.74-0.1-0.036"/>
   <path d="m541.5 448.65c-0.33179-0.44818-0.8562-0.63613-1.317-0.91"/>
   <path d="m574.78 494.33c1.3067-24.118-22.371-37.524-32.478-56.824-0.91343-1.7441-1.7316-3.5354-2.5484-5.326"/>
   <path d="m570.7 496.86 4.08-2.532"/>
   <path d="m562.96 488.02c2.5797 2.9493 5.1593 5.8987 7.739 8.848"/>
   <path d="m544.95 463.83c8.2905 6.0207 15.024 14.272 18.007 24.189"/>
   <path d="m534.88 453.22c3.3587 3.5367 6.7173 7.0733 10.076 10.61"/>
   <path d="m533.14 450.53 1.739 2.686"/>
   <path d="m523.11 424.78c1.756 4.51 3.512 9.02 5.268 13.53"/>
   <path d="m533.09 450.4 0.051 0.132"/>
   <path d="m535.89 422.27c1.2863 3.3047 2.5727 6.6093 3.859 9.914"/>
   <path d="m530.66 420.82c-0.48267-0.29886-0.79936-0.85689-1.417-0.945"/>
   <path d="m541.5 448.65c-0.48259-0.29934-0.79988-0.85645-1.417-0.946"/>
   <path d="m558.44 494.79c1.5077-2.259 3.0153-4.518 4.523-6.777"/>
   <path d="m540.43 470.6c1.5077-2.259 3.0153-4.518 4.523-6.777"/>
   <path d="m540.43 470.6c8.2902 6.021 15.024 14.272 18.007 24.189"/>
   <path d="m566.18 503.64c1.5077-2.259 3.0153-4.518 4.523-6.777"/>
   <path d="m558.44 494.79c2.5797 2.9493 5.1593 5.8987 7.739 8.848"/>
   <path d="m566.18 503.64c1.36-0.84367 2.72-1.6873 4.08-2.531"/>
   <path d="m570.26 501.11c1.5077-2.2593 3.0153-4.5187 4.523-6.778"/>
   <path d="m530.35 460c1.5077-2.259 3.0153-4.518 4.523-6.777"/>
   <path d="m530.35 460c3.3587 3.5367 6.7173 7.0733 10.076 10.61"/>
   <path d="m533.14 450.53c-1.5077 2.2593-3.0153 4.5187-4.523 6.778"/>
   <path d="m517.78 429.47c0.73133 1.878 1.4627 3.756 2.194 5.634"/>
   <path d="m524.68 447.2c1.312 3.3703 2.624 6.7407 3.936 10.111"/>
   <path d="m528.62 457.31 1.739 2.686"/>
   <path d="m518.11 424.54c-0.26267 0.92633-0.484 4.2123-0.332 4.929"/>
   <path d="m528.56 457.18c-10.275-3.912-20.549-7.824-30.824-11.736"/>
   <path d="m525.68 449.78c-8.036-3.06-16.072-6.12-24.108-9.18"/>
   <path d="m526.44 460.36c-10.288-3.917-20.575-7.834-30.863-11.751"/>
   <path d="m495.58 448.61-1.229-0.306"/>
   <path d="m532.03 464.38c0.96655 0.22943 1.8904 0.56406 2.901 0.43"/>
   <path d="m528.84 462.09c0.48058 0.45054 2.6099 1.9832 3.194 2.299"/>
   <path d="m528.83 462.09-2.396-1.724"/>
   <path d="m483.8 448.9c0.22733 0.08 1.0107 0.32533 1.175 0.368"/>
   <path d="m470.59 443.51c4.4033 1.7977 8.8067 3.5953 13.21 5.393"/>
   <path d="m443.42 413.96c-0.055-1.3387-0.11-2.6773-0.165-4.016"/>
   <path d="m443.25 409.94c-0.16279-0.65142-1.2095-3.0441-1.57-3.589"/>
   <path d="m441.68 406.35c-8.107-9.1567-16.214-18.313-24.321-27.47"/>
   <path d="m425.46 373.75c-2.7007 1.71-5.4013 3.42-8.102 5.13"/>
   <path d="m443.02 393.58c-5.8503-6.6077-11.701-13.215-17.551-19.823"/>
   <path d="m443.02 393.58c1.7961 2.3671 5.298 3.1733 7.952 1.841"/>
   <path d="m450.97 395.42c2.1417-1.3557 4.2833-2.7113 6.425-4.067"/>
   <path d="m461.4 390.82c-0.45733-0.06-3.1287 0.29-4.007 0.525"/>
   <path d="m461.4 390.82c3.7847 0.876 7.5693 1.752 11.354 2.628"/>
   <path d="m500.17 425.68c-0.271-1.3813-0.542-2.7627-0.813-4.144"/>
   <path d="m500.78 441.21c0.36333-0.35125 1.4727-2.0072 1.664-2.484"/>
   <path d="m493.87 445.59c2.302-1.4577 4.604-2.9153 6.906-4.373"/>
   <path d="m482.44 442.12c0.17175 0.48375 1.2818 2.1038 1.665 2.43"/>
   <path d="m494.5 438.26c0.354 0.075 1.6753 0.11367 1.982 0.058"/>
   <path d="m481.14 452.89c0.887-1.329 1.774-2.658 2.661-3.987"/>
   <path d="m471.46 448.94c3.2253 1.317 6.4507 2.634 9.676 3.951"/>
   <path d="m456.55 440.84c-2.0193-2.2807-4.0387-4.5613-6.058-6.842"/>
   <path d="m444.22 426.92c-0.58533-0.66133-1.1707-1.3227-1.756-1.984"/>
   <path d="m481.14 452.89c0.80967 0.17033 3.805 0.26833 4.493 0.147"/>
   <path d="m398.03 382.22c-3.3778 6.303 0.26909 14.008 4.429 18.986"/>
   <path d="m402.29 375.84c-1.419 2.1263-2.838 4.2527-4.257 6.379"/>
   <path d="m417.36 378.88c-3.4315-3.9851-10.917-8.5894-15.072-3.039"/>
   <path d="m439.02 410.34c0.88667-1.3287 1.7733-2.6573 2.66-3.986"/>
   <path d="m441.03 422.29c-6.0573-0.64933-12.115-1.2987-18.172-1.948"/>
   <path d="m415.45 415.88c1.8315 2.3086 4.5068 3.932 7.408 4.464"/>
   <path d="m415.45 415.88c-4.3293-4.8897-8.6587-9.7793-12.988-14.669"/>
   <path d="m406.99 386.74c1.4419-1.9656 4.0894-0.33835 5.275 1.064"/>
   <path d="m406.99 386.74c-0.88958 2.2527-0.25741 5.0193 1.552 6.645"/>
   <path d="m408.54 393.39c2.275 2.5697 4.55 5.1393 6.825 7.709"/>
   <path d="m420.64 402.16c-1.4421 1.9652-4.0889 0.33771-5.275-1.064"/>
   <path d="m420.64 402.16c0.88936-2.2526 0.25791-5.0195-1.552-6.645"/>
   <path d="m419.09 395.52c-2.275-2.5697-4.55-5.1393-6.825-7.709"/>
   <path d="m440.9 421.35c0.16263 0.65154 1.2086 3.0442 1.569 3.589"/>
   <path d="m443.25 409.94c-0.887 1.3287-1.774 2.6573-2.661 3.986"/>
   <path d="m440.9 421.35c-0.102-2.4737-0.204-4.9473-0.306-7.421"/>
   <path d="m498.12 445.2c0.88667-1.329 1.7733-2.658 2.66-3.987"/>
   <path d="m494.23 447.66c1.295-0.81967 2.59-1.6393 3.885-2.459"/>
   <path d="m440.59 413.93c-0.16263-0.65167-1.2086-3.0443-1.569-3.589"/>
   <path d="m498.12 445.2 1.101-1.068"/>
   <path d="m412.1 369.03c4.8076-2.6139 10.181 1.2564 13.362 4.727"/>
   <path d="m409.6 385.97c-0.13857 1.9847 0.57407 4.0584 1.977 5.492"/>
   <path d="m418.4 399.17c0.39879 0.36625 2.1735 1.5902 2.662 1.836"/>
   <path d="m411.58 391.46c2.275 2.5693 4.55 5.1387 6.825 7.708"/>
   <path d="m488.47 405.5-2.64-1.765"/>
   <path d="m482.08 465.4c-0.75833-4.3513-1.5167-8.7027-2.275-13.054"/>
   <path d="m479.08 463.56-1.476-8.469"/>
   <path d="m477.6 455.09-1.305-2.422"/>
   <path d="m474.79 450.3 1.512 2.37"/>
   <path d="m471.62 397.4-0.084 1.258"/>
   <path d="m468.26 395.2c0.52288 0.41987 2.7649 1.8879 3.363 2.202"/>
   <path d="m468.42 394.48-0.163 0.725"/>
   <path d="m472.17 394.99c-1.0093-0.18-3.5067-0.52067-3.746-0.511"/>
   <path d="m505.35 403.92c-2.2082-12.984-20.78-22.614-31.025-12.536-1.0322 1.0158-1.5548 2.3259-2.1559 3.6119"/>
   <path d="m505.35 403.92c8.904 3.3963 17.808 6.7927 26.712 10.189"/>
   <path d="m532.77 414.42-0.713-0.316"/>
   <path d="m529.97 423.39c5.2574 2.714 9.2897-4.7659 4.3614-7.9191-0.47128-0.40271-1.0653-0.66844-1.5564-1.0489"/>
   <path d="m503.26 413.2 26.712 10.188"/>
   <path d="m502.33 414.26 0.928-1.063"/>
   <path d="m504.4 417.47c-0.29075-0.5735-1.6768-2.7095-2.079-3.204"/>
   <path d="m503.83 417.93 0.572-0.463"/>
   <path d="m502.86 417.5 0.975 0.431"/>
   <path d="m500.42 415.8 2.432 1.701"/>
   <path d="m499.28 416.46 1.137-0.652"/>
   <path d="m500.48 419.85c-0.13263-0.59738-0.92863-2.8614-1.194-3.396"/>
   <path d="m499.75 420.13 0.726-0.28"/>
   <path d="m496.87 417.38c0.43504 0.50467 2.3557 2.3353 2.881 2.746"/>
   <path d="m495.51 417.7 1.363-0.312"/>
   <path d="m495.74 421.05c0.0437-0.42333-0.10967-2.66-0.23-3.355"/>
   <path d="m494.91 421.13 0.829-0.076"/>
   <path d="m492.75 417.96c0.30542 0.56904 1.7461 2.6837 2.161 3.172"/>
   <path d="m491.26 417.91c0.43633 0.0157 1.4323 0.0463 1.494 0.046"/>
   <path d="m490.51 420.99c0.254-0.90633 0.75333-2.9623 0.749-3.084"/>
   <path d="m489.63 420.87 0.876 0.13"/>
   <path d="m488.34 417.48c0.14963 0.59658 1.0096 2.8539 1.29 3.386"/>
   <path d="m486.82 417.08 1.524 0.402"/>
   <path d="m485.14 419.68c0.34817-0.38521 1.4668-2.1205 1.678-2.603"/>
   <path d="m484.28 419.35 0.862 0.329"/>
   <path d="m483.95 415.98c-0.0313 0.36367 0.18933 2.6103 0.331 3.37"/>
   <path d="m483.22 415.63 0.73 0.353"/>
   <path d="m482.5 415.25 0.719 0.38"/>
   <path d="m480.01 417.19c0.46725-0.26083 2.1272-1.5582 2.49-1.946"/>
   <path d="m479.22 416.69 0.79 0.506"/>
   <path d="m479.87 413.57c-0.22533 0.864-0.65867 2.9447-0.65 3.121"/>
   <path d="m478.6 412.55 1.276 1.011"/>
   <path d="m475.46 413.71c0.55683-0.12167 2.6462-0.89233 3.134-1.156"/>
   <path d="m474.8 413.06 0.665 0.647"/>
   <path d="m476.38 410.4c-0.33467 0.39658-1.3933 2.1699-1.588 2.66"/>
   <path d="m475.37 409.18 1.017 1.219"/>
   <path d="m471.8 409.47c0.40267 0.0327 2.78-0.158 3.566-0.286"/>
   <path d="m471.3 408.72 0.495 0.745"/>
   <path d="m473.72 406.7c-0.45633 0.27458-2.0657 1.6219-2.414 2.021"/>
   <path d="m473.03 405.36 0.689 1.347"/>
   <path d="m469.28 404.76c1.083 0.205 3.585 0.60567 3.753 0.601"/>
   <path d="m468.98 403.96 0.29 0.791"/>
   <path d="m472.07 402.72c-0.54925 0.13621-2.6012 0.96354-3.078 1.241"/>
   <path d="m471.75 401.34 0.311 1.383"/>
   <path d="m469 400.42 2.751 0.918"/>
   <path d="m468.07 399.89 0.933 0.534"/>
   <path d="m468 399.1 0.065 0.784"/>
   <path d="m470.5 398.66c-0.022 0-1.6873 0.29467-2.498 0.442"/>
   <path d="m470.5 398.66c0.28284 2.7e-4 0.97284 9.4e-4 1.035 1e-3"/>
   <path d="m493.98 406.98c2.319 1.244 3.3463-1.8843 1.143-2.812"/>
   <path d="m495.12 404.17c-2.3184-1.2443-3.346 1.885-1.143 2.812"/>
   <path d="m481.96 400.92c2.3177 1.2425 3.3463-1.8839 1.143-2.812"/>
   <path d="m483.1 398.11c-2.3189-1.2446-3.3471 1.8848-1.143 2.812"/>
   <path d="m487.48 405.14c4.3645 2.1183 6.1009-3.2937 2.11-5.192"/>
   <path d="m489.59 399.95c-4.3646-2.1179-6.099 3.2925-2.11 5.192"/>
   <path d="m530.24 420.64c3.0334 1.6765 4.4582-2.6002 1.539-3.786"/>
   <path d="m531.78 416.86c-3.0333-1.6758-4.4573 2.5988-1.539 3.786"/>
   <path d="m479.87 413.57c-0.15704 0.23524-0.63904 0.95724-0.723 1.083"/>
   <path d="m479.22 416.69c-0.15698 0.23528-0.72764 1.0906-0.856 1.283"/>
   <path d="m477.58 417.06-0.317 0.84"/>
   <path d="m480.01 417.19c-0.15701 0.23526-0.58767 0.8806-0.646 0.968"/>
   <path d="m483.95 415.98c-0.70933 1.0633-1.4187 2.1267-2.128 3.19"/>
   <path d="m484.28 419.35c-0.70967 1.0633-1.4193 2.1267-2.129 3.19"/>
   <path d="m481.82 419.17c-0.0313 0.364 0.18867 2.6107 0.33 3.37"/>
   <path d="m482.5 415.25c-0.70967 1.063-1.4193 2.126-2.129 3.189"/>
   <path d="m474.79 413.06-0.187 0.28"/>
   <path d="m475.46 413.71-0.159 0.238"/>
   <path d="m478.59 412.56c-0.15707 0.23522-0.70374 1.0539-0.82 1.228"/>
   <path d="m485.14 419.68c-0.70967 1.0633-1.4193 2.1267-2.129 3.19"/>
   <path d="m482.15 422.54 0.862 0.33"/>
   <path d="m483.02 422.87 1.007-1.098"/>
   <path d="m471.8 409.47-0.34 0.509"/>
   <path d="m475.36 409.18-0.247 0.371"/>
   <path d="m488.34 417.48c-0.70933 1.0633-1.4187 2.1267-2.128 3.19"/>
   <path d="m489.63 420.86c-0.70933 1.0633-1.4187 2.1267-2.128 3.19"/>
   <path d="m486.22 420.67c0.14975 0.59675 1.0098 2.8548 1.29 3.387"/>
   <path d="m471.3 408.72c-0.15697 0.23529-0.47764 0.71596-0.481 0.721"/>
   <path d="m490.51 420.99c-0.70933 1.063-1.4187 2.126-2.128 3.189"/>
   <path d="m487.5 424.06 0.876 0.129"/>
   <path d="m481.09 418.82 0.73 0.353"/>
   <path d="m469.28 404.75c-0.55567 0.833-1.1113 1.666-1.667 2.499"/>
   <path d="m473.03 405.36c-0.47433 0.71067-0.94867 1.4213-1.423 2.132"/>
   <path d="m484.97 420.35 1.244 0.319"/>
   <path d="m492.75 417.96c-0.70933 1.063-1.4187 2.126-2.128 3.189"/>
   <path d="m494.91 421.13c-0.70967 1.0633-1.4193 2.1267-2.129 3.19"/>
   <path d="m490.62 421.15c0.30558 0.56908 1.7469 2.6844 2.162 3.173"/>
   <path d="m468.99 403.96c-0.659 0.98733-1.318 1.9747-1.977 2.962"/>
   <path d="m495.74 421.05c-0.70933 1.063-1.4187 2.126-2.128 3.189"/>
   <path d="m492.78 424.32 0.829-0.076"/>
   <path d="m527.84 426.58c0.70933-1.0633 1.4187-2.1267 2.128-3.19"/>
   <path d="m502.46 414.4c0.15698-0.23528 0.68898-1.0326 0.798-1.196"/>
   <path d="m504.31 417.6c7.842 2.9913 15.684 5.9827 23.526 8.974"/>
   <path d="m471.76 401.34c-0.383 0.57367-0.766 1.1473-1.149 1.721"/>
   <path d="m469 400.42c-0.70933 1.063-1.4187 2.126-2.128 3.189"/>
   <path d="m466.88 403.61 1.866 0.722"/>
   <path d="m496.87 417.39c-0.35233 0.528-0.70467 1.056-1.057 1.584"/>
   <path d="m499.75 420.13c-0.70933 1.063-1.4187 2.126-2.128 3.189"/>
   <path d="m495.46 421.48 2.168 1.843"/>
   <path d="m468.07 399.89c-0.70967 1.0633-1.4193 2.1267-2.129 3.19"/>
   <path d="m465.94 403.08 0.44 0.267"/>
   <path d="m468 399.1c-0.70933 1.063-1.4187 2.126-2.128 3.189"/>
   <path d="m465.88 402.29 0.065 0.784"/>
   <path d="m500.48 419.85c-0.70933 1.063-1.4187 2.126-2.128 3.189"/>
   <path d="m497.62 423.32 0.725-0.28"/>
   <path d="m470.78 398.66c0.15711-0.2352 0.71644-1.0725 0.839-1.256"/>
   <path d="m466.13 398.4c0.70933-1.063 1.4187-2.126 2.128-3.189"/>
   <path d="m466.13 398.39 1.527 1.232"/>
   <path d="m500.42 415.8c-0.15698 0.23528-0.69698 1.0446-0.81 1.214"/>
   <path d="m502.86 417.5c-0.70933 1.063-1.4187 2.126-2.128 3.189"/>
   <path d="m500.13 420.37c0.0883 0.0503 0.48433 0.26633 0.594 0.324"/>
   <path d="m466.29 397.67c0.70933-1.0633 1.4187-2.1267 2.128-3.19"/>
   <path d="m466.29 397.67-0.163 0.724"/>
   <path d="m503.83 417.93c-0.70933 1.063-1.4187 2.126-2.128 3.189"/>
   <path d="m500.73 420.69 0.974 0.431"/>
   <path d="m489.65 405.61c-0.28204-0.48654-1.7407-2.1332-2.188-2.47"/>
   <path d="m485.3 402.69c0.77385-0.15565 1.449 0.2582 2.163 0.448"/>
   <path d="m504.4 417.47c-0.70967 1.063-1.4193 2.126-2.129 3.189"/>
   <path d="m501.7 421.12 0.572-0.463"/>
   <path d="m527.84 426.58c1.9908 1.0903 4.6858 0.5023 6.047-1.304"/>
   <path d="m529.66 420.04c0.70933-1.063 1.4187-2.126 2.128-3.189"/>
   <path d="m530.66 420.82c-0.27159-0.32958-0.6656-0.51755-1.003-0.771"/>
   <path d="m459.03 458.08c-1.4052 3.3328 0.24863 7.4613 3.517 8.945"/>
   <path d="m459.03 458.08 0.231-0.361"/>
   <path d="m473.19 459.95c5.0937 3.1177 10.187 6.2353 15.281 9.353"/>
   <path d="m501.01 478.97c2.3097 2.9353 4.6193 5.8707 6.929 8.806"/>
   <path d="m507.94 487.77c4.7276 9.4492 12.552 16.923 21.842 21.85"/>
   <path d="m529.78 509.62c2.5447 2.9707 5.0893 5.9413 7.634 8.912"/>
   <path d="m537.41 518.54c-1.3767 0.825-2.7533 1.65-4.13 2.475"/>
   <path d="m533.28 521.01c-27.139-4.7384-37.865-33.923-59.595-47.168"/>
   <path d="m462.54 467.02c3.714 2.2733 7.428 4.5467 11.142 6.82"/>
   <path d="m465.79 459.93c0.5863 0.13658 0.97356 0.58477 1.417 0.945"/>
   <path d="m473.69 473.84c-1.5077 2.259-3.0153 4.518-4.523 6.777"/>
   <path d="m533.28 521.01c-1.5077 2.259-3.0153 4.518-4.523 6.777"/>
   <path d="m528.76 527.79c-27.139-4.7376-37.865-33.923-59.595-47.168"/>
   <path d="m458.02 473.8c1.5077-2.2593 3.0153-4.5187 4.523-6.778"/>
   <path d="m458.02 473.8 11.142 6.819"/>
   <path d="m537.41 518.54c-1.5077 2.2593-3.0153 4.5187-4.523 6.778"/>
   <path d="m532.89 525.31c-1.3767 0.82467-2.7533 1.6493-4.13 2.474"/>
   <path d="m454.51 464.86c1.5077-2.259 3.0153-4.518 4.523-6.777"/>
   <path d="m454.5 464.86c-1.405 3.3322 0.24862 7.4611 3.517 8.944"/>
   <path d="m454.51 464.86 0.156-0.25"/>
   <path d="m435.32 661.04c6.6032-3.4568 12.108-8.9596 15.565-15.563"/>
   <path d="m450.88 645.48c1.051-3.4062 2.2141-8.0218 0.92-11.22-0.46644 0.32548-0.65706 0.92392-0.92 1.4"/>
   <path d="m435.32 651.22c6.6034-3.456 12.108-8.9591 15.565-15.562"/>
   <path d="m435.32 651.22c-3.7825 1.4203-7.1677 10.446-1.073 10.271l0.487-0.163 0.586-0.288"/>
   <path d="m350.29 667.18c24.964 13.239 56.394 13.467 81.942 1.664 10.138-5.1344 20.502-13.917 20.705-26.209"/>
   <path d="m332.68 642.63c0.11333 10.973 8.7185 19.387 17.611 24.545"/>
   <path d="m361.27 609.59c25.205 8.2817 54.833 7.1977 77.596-7.2826 7.4413-5.0575 13.991-12.849 14.066-22.273"/>
   <path d="m332.68 580.03c0.26284 6.9693 3.5981 13.719 8.934 18.201"/>
   <path d="m431.09 657.33c4.7921-2.7013 8.8659-6.6571 11.708-11.367"/>
   <path d="m429.65 378.48-0.067-0.085"/>
   <path d="m429.58 378.39c0.74033-1.3353 1.4807-2.6707 2.221-4.006"/>
   <path d="m431.8 374.39c3.5297 4.5237 7.0593 9.0473 10.589 13.571"/>
   <path d="m438.95 388.98c1.1473-0.34167 2.2947-0.68333 3.442-1.025"/>
   <path d="m357.69 406.14c15.22-1.3103 30.44-2.6207 45.66-3.931"/>
   <path d="m314.91 372.08c-0.0987 1.38-0.19733 2.76-0.296 4.14"/>
   <path d="m321.2 372.06c-2.0953 9e-3 -4.1907 0.018-6.286 0.027"/>
   <path d="m401.42 377.15c-20.294-1.4807-40.589-2.9613-60.883-4.442"/>
   <path d="m429.58 378.39-8e-3 1e-3"/>
   <path d="m443.96 366.69c3.5297 4.5237 7.0593 9.0473 10.589 13.571"/>
   <path d="m454.55 380.26c-4.0513 2.565-8.1027 5.13-12.154 7.695"/>
   <path d="m443.96 366.69c-4.0513 2.565-8.1027 5.13-12.154 7.695"/>
   <path d="m442.39 387.96c-0.108 1.5157-0.216 3.0313-0.324 4.547"/>
   <path d="m454.55 380.26c-0.321 4.4983-0.642 8.9967-0.963 13.495"/>
   <path d="m426.05 374.41c1.9183-8e-3 3.8367-0.0167 5.755-0.025"/>
   <path d="m432.4 366.74c3.854-0.0167 7.708-0.0333 11.562-0.05"/>
   <path d="m432.4 366.74c-2.8387 1.797-5.6773 3.594-8.516 5.391"/>
   <path d="m332.16 368.01c24.373 1.7783 48.746 3.5567 73.119 5.335"/>
   <path d="m332.16 368.01c-0.235 0.83867-0.47 1.6773-0.705 2.516"/>
   <path d="m344.31 360.32c-4.0513 2.565-8.1027 5.13-12.154 7.695"/>
   <path d="m344.31 360.32c29.361 2.1423 58.721 4.2847 88.082 6.427"/>
   <path d="m404.75 403.79c-15.454 1.3303-30.909 2.6607-46.363 3.991"/>
   <path d="m314.82 368.09 17.343-0.075"/>
   <path d="m314.82 368.09 0.093 3.996"/>
   <path d="m326.97 360.39c-4.0513 2.565-8.1027 5.13-12.154 7.695"/>
   <path d="m326.97 360.39 17.343-0.075"/>
   <path d="m314.22 376.47c0.19933-2.7953 0.39867-5.5907 0.598-8.386"/>
   <path d="m435.02 596.12c10.479-5.9433 19.098-19.342 12.696-31.175-3.0814-6.4209-8.9214-11.087-14.949-14.61"/>
   <path d="m372.26 543.13c-14.78 3.4832-32.11 10.999-36.225 27.117-2.5001 15.476 12.335 26.461 25.244 31.109 23.619 8.5108 51.826 7.597 73.738-5.2382"/>
   <path d="m437.24 599.74c-23.771 13.811-54.125 14.615-79.493 4.7645-13.097-5.062-27.756-16.947-24.562-32.644 2.1623-8.9674 9.4252-15.543 17.1-20.05"/>
   <path d="m435.33 551.81c11.198 5.9247 21.609 19.091 16.048 32.219-2.583 6.753-8.2213 11.837-14.141 15.71"/>
   <path d="m437.24 603.42c8.1026-5.1564 15.619-13.225 15.698-23.388"/>
   <path d="m332.68 580.03c0.83411 16.835 17.867 26.359 32.244 30.752 23.618 6.6793 50.903 5.3459 72.316-7.3644"/>
   <path d="m412.31 512.67-7.392-18.039"/>
   <path d="m404.92 494.63c1.103-1.0207 2.206-2.0413 3.309-3.062"/>
   <path d="m408.23 491.57c2.777 6.7767 5.554 13.553 8.331 20.33"/>
   <path d="m412.31 512.67c1.416-0.257 2.832-0.514 4.248-0.771"/>
   <path d="m380.17 560c1.0203-0.646 2.0407-1.292 3.061-1.938"/>
   <path d="m380.48 563.89c-0.10367-1.296-0.20733-2.592-0.311-3.888"/>
   <path d="m411.2 580.06c-10.24-5.3903-20.481-10.781-30.721-16.171"/>
   <path d="m417.94 579.88c-2.245 0.0597-4.49 0.11933-6.735 0.179"/>
   <path d="m435.82 568.56c-5.9613 3.7743-11.923 7.5487-17.884 11.323"/>
   <path d="m435.51 564.67c0.10367 1.296 0.20733 2.592 0.311 3.888"/>
   <path d="m424.43 481.31c-5.4017 3.42-10.803 6.84-16.205 10.26"/>
   <path d="m432.76 501.64c-2.777-6.7767-5.554-13.553-8.331-20.33"/>
   <path d="m432.76 501.64c-5.4017 3.42-10.803 6.84-16.205 10.26"/>
   <path d="m404.92 494.63c-4.148-2.1833-8.296-4.3667-12.444-6.55"/>
   <path d="m412.31 575.84v-30.211"/>
   <path d="m412.31 535.34v-22.675"/>
   <path d="m383.43 560.64c9.6267 5.0673 19.253 10.135 28.88 15.202"/>
   <path d="m383.43 555.2v5.438"/>
   <path d="m391.18 485.04c0.12633-0.74967 0.25267-1.4993 0.379-2.249"/>
   <path d="m391.56 482.8c5.554 2.9237 11.108 5.8473 16.662 8.771"/>
   <path d="m407.77 472.54c-5.4017 3.4197-10.803 6.8393-16.205 10.259"/>
   <path d="m424.43 481.31c-5.554-2.9233-11.108-5.8467-16.662-8.77"/>
   <path d="m416.56 511.9v63.827"/>
   <path d="m412.31 575.84c1.416-0.0377 2.832-0.0753 4.248-0.113"/>
   <path d="m432.76 565.46v-63.827"/>
   <path d="m416.56 575.72c5.4017-3.42 10.803-6.84 16.205-10.26"/>
   <path d="m390.72 483.96c0.16529-0.22952 0.72463-1.0062 0.839-1.165"/>
   <path d="m383.23 558.18c0.0653 0.81733 0.13067 1.6347 0.196 2.452"/>
   <path d="m383.23 558.18v-3.135"/>
   <path d="m416.56 575.72c0.46067 1.3853 0.92133 2.7707 1.382 4.156"/>
   <path d="m412.31 575.84c-0.36833 1.4073-0.73667 2.8147-1.105 4.222"/>
   <path d="m383.43 560.64c-0.982 1.0843-1.964 2.1687-2.946 3.253"/>
   <path d="m432.76 565.46c1.0203 1.031 2.0407 2.062 3.061 3.093"/>
   <path d="m432.76 563.12c0.91667 0.51567 1.8333 1.0313 2.75 1.547"/>
   <path d="m383.23 558.18c-1.0203 0.60567-2.0407 1.2113-3.061 1.817"/>
   <path d="m470 459.02c-0.436 0.65333-0.872 1.3067-1.308 1.96"/>
   <path d="m493.81 440.16-0.132 0.197"/>
   <path d="m521.36 424.11c-1.1933 1.788-2.3867 3.576-3.58 5.364"/>
   <path d="m526.44 460.36c0.709-1.0627 1.418-2.1253 2.127-3.188"/>
   <path d="m497.66 445.49c-0.69467 1.041-1.3893 2.082-2.084 3.123"/>
   <path d="m530.28 459.92c-0.48267 0.723-0.96533 1.446-1.448 2.169"/>
   <path d="m443 424.15c-0.15696 0.23529-0.50963 0.76396-0.529 0.793"/>
   <path d="m479.52 452.22c-0.63733 0.95533-1.2747 1.9107-1.912 2.866"/>
   <path d="m476.3 452.67c0.15697-0.23529 0.77031-1.1546 0.92-1.379"/>
   <path d="m435.32 661.04c-1.4693-0.84867-2.9387-1.6973-4.408-2.546"/>
   <path d="m450.88 645.48c-1.589-0.91733-3.178-1.8347-4.767-2.752"/>
  </g>
 </g>
</svg>
